<?xml version="1.0" encoding="utf-8"?>
<!-- Generator: Adobe Illustrator 16.0.0, SVG Export Plug-In . SVG Version: 6.00 Build 0)  -->
<!DOCTYPE svg PUBLIC "-//W3C//DTD SVG 1.1//EN" "http://www.w3.org/Graphics/SVG/1.1/DTD/svg11.dtd">
<svg version="1.1" id="Capa_1" xmlns="http://www.w3.org/2000/svg" xmlns:xlink="http://www.w3.org/1999/xlink" x="0px" y="0px"
	 width="512px" height="512" viewBox="0 0 386.586 275.598" enable-background="new 0 0 386.586 275.598"
	 xml:space="preserve">
<path fill="#3487D1" d="M367.865,179.225c-6.959,25.311-18.529,44.109-34.721,56.389c-16.189,12.291-36.729,18.432-61.609,18.432
	c-12.38,0-23.88-1.701-34.49-5.111c-15.78-5.049-29.59-13.869-41.439-26.449c-1.561-1.65-3.051-3.35-4.471-5.1
	c-1.74-2.1-3.37-4.26-4.91-6.5c-11.97-17.291-18.72-34.617-19.857-60.948c-0.148-3.422-0.172-10.744-0.133-26.122
	c-0.52-12.9-2.039-23.17-4.549-30.801c-3.16-9.6-7.59-17.09-13.291-22.469c-5.689-5.371-12.92-9.01-21.67-10.911
	c-6.539-1.48-19.35-2.22-38.439-2.22h-21.04v153.599h34.96c3.17,0,6.12-0.039,8.859-0.129h49.931l-29.115,38.883
	c-6.998,0.493-14.065,0.316-23.345,0.316h-88.11v-231.9h85.58c19.3,0,34.011,1.48,44.13,4.43c13.61,4.01,25.26,11.13,34.96,21.36
	c2.21,2.34,4.311,4.79,6.271,7.36c1.399-1.74,2.87-3.431,4.399-5.07c19.931-21.35,46.13-32.03,78.61-32.03
	c28.371,0,51.419,8.38,69.13,25.15c10.549,9.92,18.449,24.151,23.73,42.709l-46.352,11.07c-2.74-12.02-8.459-21.51-17.16-28.471
	c-8.699-6.959-19.279-10.439-31.719-10.439c-17.189,0-31.14,6.17-41.84,18.509c-9.22,10.641-14.47,26.951-15.74,48.951
	c-0.753,9.47-0.04,17.622,0.15,25.209c1.479,21.961,6.6,38.1,15.35,48.43c10.55,12.451,24.26,18.67,41.13,18.67
	c12.44,0,23.15-3.959,32.111-11.869c8.969-7.91,15.4-20.35,19.299-37.33L367.865,179.225z"/>
</svg>
